<svg width="1471" height="817" viewBox="0 0 1471 817" fill="none" xmlns="http://www.w3.org/2000/svg">
<g clip-path="url(#clip0)">
<rect x="607" width="864" height="525" rx="6" fill="#292929"/>
<rect x="974" y="198" width="60" height="60" fill="#0A0A0A"/>
<rect x="1043" y="267" width="60" height="60" fill="#0A0A0A"/>
<rect x="974" y="267" width="60" height="60" fill="#0A0A0A"/>
<rect x="1043" y="198" width="60" height="60" fill="#0A0A0A"/>
</g>
<rect y="367" width="300" height="450" rx="6" fill="#303030"/>
<path d="M44 343.5H256C257.933 343.5 259.5 345.067 259.5 347V366.5H40.5V347C40.5 345.067 42.067 343.5 44 343.5Z" fill="#696969" stroke="black"/>
<path d="M125.067 343H136.8V356.143C136.8 358.352 135.009 360.143 132.8 360.143H129.067C126.858 360.143 125.067 358.352 125.067 356.143V343Z" fill="#D19700"/>
<path d="M145.6 343H157.333V356.143C157.333 358.352 155.542 360.143 153.333 360.143H149.6C147.391 360.143 145.6 358.352 145.6 356.143V343Z" fill="#D19700"/>
<path d="M104.533 343H116.267V356.143C116.267 358.352 114.476 360.143 112.267 360.143H108.533C106.324 360.143 104.533 358.352 104.533 356.143V343Z" fill="#D19700"/>
<path d="M63.4667 343H75.2V356.143C75.2 358.352 73.4091 360.143 71.2 360.143H67.4667C65.2575 360.143 63.4667 358.352 63.4667 356.143V343Z" fill="#D19700"/>
<path d="M166.133 343H177.867V356.143C177.867 358.352 176.076 360.143 173.867 360.143H170.133C167.924 360.143 166.133 358.352 166.133 356.143V343Z" fill="#D19700"/>
<path d="M166.133 343H177.867V356.143C177.867 358.352 176.076 360.143 173.867 360.143H170.133C167.924 360.143 166.133 358.352 166.133 356.143V343Z" fill="#D19700"/>
<path d="M186.667 343H198.4V356.143C198.4 358.352 196.609 360.143 194.4 360.143H190.667C188.458 360.143 186.667 358.352 186.667 356.143V343Z" fill="#D19700"/>
<path d="M207.2 343H218.933V356.143C218.933 358.352 217.142 360.143 214.933 360.143H211.2C208.991 360.143 207.2 358.352 207.2 356.143V343Z" fill="#D19700"/>
<path d="M227.733 343H239.467V356.143C239.467 358.352 237.676 360.143 235.467 360.143H231.733C229.524 360.143 227.733 358.352 227.733 356.143V343Z" fill="#D19700"/>
<path d="M104.184 730.368V728H119.032V730.368C117.667 730.368 116.685 730.581 116.088 731.008C115.491 731.435 115.192 732.139 115.192 733.12V761.664C115.192 766.571 114.104 770.304 111.928 772.864C109.795 775.381 106.659 776.64 102.52 776.64C100.515 776.64 98.68 776.235 97.016 775.424C95.3947 774.571 94.1147 773.44 93.176 772.032C92.2373 770.624 91.768 769.045 91.768 767.296C91.768 765.717 92.2587 764.395 93.24 763.328C94.2213 762.219 95.4373 761.643 96.888 761.6C98.2533 761.557 99.4267 762.048 100.408 763.072C101.389 764.053 101.88 765.248 101.88 766.656C101.88 767.765 101.624 768.64 101.112 769.28C100.643 769.877 100.067 770.325 99.384 770.624C98.744 770.923 98.168 771.115 97.656 771.2C97.1867 771.285 96.952 771.328 96.952 771.328C96.952 771.328 97.08 771.563 97.336 772.032C97.6347 772.459 98.1253 772.907 98.808 773.376C99.4907 773.845 100.472 774.08 101.752 774.08C103.715 774.08 105.251 773.248 106.36 771.584C107.469 769.92 108.024 767.637 108.024 764.736V733.12C108.024 732.139 107.725 731.435 107.128 731.008C106.531 730.581 105.549 730.368 104.184 730.368ZM126.911 770.816C126.74 771.712 126.975 772.416 127.615 772.928C128.297 773.397 129.343 773.632 130.751 773.632V776H120.062V773.632C121.3 773.632 122.217 773.419 122.815 772.992C123.412 772.565 123.817 771.84 124.031 770.816L133.631 727.104H136.703L146.623 770.944C146.836 772.011 147.199 772.736 147.711 773.12C148.265 773.461 149.183 773.632 150.463 773.632V776H135.615V773.632C137.151 773.632 138.217 773.44 138.815 773.056C139.455 772.629 139.668 771.947 139.455 771.008L138.111 764.544H128.255L126.911 770.816ZM128.831 761.984H137.535L133.311 741.568L128.831 761.984ZM152.289 773.632C153.654 773.632 154.636 773.419 155.233 772.992C155.83 772.565 156.129 771.861 156.129 770.88V733.12C156.129 732.139 155.83 731.435 155.233 731.008C154.636 730.581 153.654 730.368 152.289 730.368V728H167.393C171.233 728 174.156 729.024 176.161 731.072C178.209 733.12 179.233 736.085 179.233 739.968C179.233 742.656 178.849 744.789 178.081 746.368C177.313 747.947 175.99 749.291 174.113 750.4C176.417 751.595 178.081 753.152 179.105 755.072C180.172 756.949 180.705 759.381 180.705 762.368C180.705 767.019 179.724 770.453 177.761 772.672C175.798 774.891 172.769 776 168.673 776H152.289V773.632ZM167.393 730.56H163.297V773.44H168.673C170.081 773.44 171.212 772.885 172.065 771.776C172.918 770.624 173.345 769.131 173.345 767.296V758.272C173.345 756.395 172.918 754.88 172.065 753.728C171.212 752.576 170.081 752 168.673 752H165.921V749.44H167.393C168.801 749.44 169.932 748.864 170.785 747.712C171.638 746.56 172.065 745.045 172.065 743.168V736.704C172.065 734.827 171.638 733.333 170.785 732.224C169.974 731.115 168.844 730.56 167.393 730.56ZM195.69 729.92C194.239 729.92 192.959 730.475 191.85 731.584C190.783 732.651 190.25 733.931 190.25 735.424C190.25 736.619 190.527 737.813 191.082 739.008C191.679 740.16 192.639 741.483 193.962 742.976L200.426 750.528C202.261 752.661 203.669 754.517 204.65 756.096C205.674 757.632 206.378 759.125 206.762 760.576C207.189 761.984 207.402 763.563 207.402 765.312C207.402 767.403 206.869 769.301 205.802 771.008C204.735 772.715 203.306 774.08 201.514 775.104C199.722 776.128 197.738 776.64 195.562 776.64C193.983 776.64 192.703 776.491 191.722 776.192C190.741 775.893 189.951 775.595 189.354 775.296C188.799 774.997 188.309 774.848 187.882 774.848C187.455 774.848 187.05 774.976 186.666 775.232C186.282 775.445 186.047 775.701 185.962 776H183.722V762.432H185.898C186.495 765.845 187.562 768.533 189.098 770.496C190.634 772.416 192.426 773.376 194.474 773.376C196.266 773.376 197.674 772.779 198.698 771.584C199.765 770.389 200.298 768.768 200.298 766.72C200.298 765.056 199.893 763.392 199.082 761.728C198.271 760.021 196.97 758.144 195.178 756.096L189.802 749.888C187.583 747.285 186.026 745.088 185.13 743.296C184.234 741.461 183.786 739.52 183.786 737.472C183.786 735.68 184.319 734.016 185.386 732.48C186.453 730.944 187.839 729.707 189.546 728.768C191.295 727.829 193.151 727.36 195.114 727.36C196.735 727.36 197.887 727.232 198.57 726.976C199.253 726.72 199.765 726.251 200.106 725.568H202.282L205.098 737.152L202.922 737.728C202.111 735.595 201.365 733.973 200.682 732.864C199.999 731.755 199.274 730.987 198.506 730.56C197.781 730.133 196.842 729.92 195.69 729.92Z" fill="white"/>
<path d="M142 216C142 213.791 143.791 212 146 212H606V220H142V216Z" fill="#292929"/>
<path d="M571 205C571 201.686 573.686 199 577 199H607V232H577C573.686 232 571 229.314 571 226V205Z" fill="#292929"/>
<path d="M32 319C32 315.686 34.6863 313 38 313H264C267.314 313 270 315.686 270 319V367H32V319Z" fill="#C4C4C4" fill-opacity="0.3"/>
<path d="M142 216C142 213.791 143.791 212 146 212H150V313H142V216Z" fill="url(#paint0_linear)"/>
<defs>
<linearGradient id="paint0_linear" x1="146" y1="212" x2="146" y2="313" gradientUnits="userSpaceOnUse">
<stop offset="0.0793233" stop-color="#292929"/>
<stop offset="1" stop-color="#C4C4C4" stop-opacity="0.3"/>
</linearGradient>
<clipPath id="clip0">
<path d="M607 0H1471V525H607V0Z" fill="white"/>
</clipPath>
</defs>
</svg>
