<svg width="504" height="108" viewBox="0 0 504 108" fill="none" xmlns="http://www.w3.org/2000/svg">
<path fill-rule="evenodd" clip-rule="evenodd" d="M43.832 60.7031H40.7852V0H43.832V60.7031ZM10.082 60.7031H7.03516V0H10.082V60.7031ZM3.98828 60.7031H0.941406V0H3.98828V60.7031ZM21.332 60.7031H13.1289V0H21.332V60.7031ZM37.7383 60.7031H29.5352V0H37.7383V60.7031ZM89.8281 60.7031H81.625V0H89.8281V60.7031ZM55.1406 60.7031H46.9375V0H55.1406V60.7031ZM66.3906 60.7031H63.3438V0H66.3906V60.7031ZM72.4844 60.7031H69.4375V0H72.4844V60.7031ZM78.5781 60.7031H75.5312V0H78.5781V60.7031ZM135.766 60.7031H127.562V0H135.766V60.7031ZM124.516 60.7031H121.469V0H124.516V60.7031ZM107.172 60.7031H104.125V0H107.172V60.7031ZM113.266 60.7031H110.219V0H113.266V60.7031ZM101.078 60.7031H92.875V0H101.078V60.7031ZM165.297 60.7031H162.25V0H165.297V60.7031ZM147.953 60.7031H144.906V0H147.953V60.7031ZM141.859 60.7031H138.812V0H141.859V60.7031ZM181.703 60.7031H173.5V0H181.703V60.7031ZM159.203 60.7031H151V0H159.203V60.7031ZM221.547 60.7031H218.5V0H221.547V60.7031ZM192.953 60.7031H184.75V0H192.953V60.7031ZM210.297 60.7031H207.25V0H210.297V60.7031ZM204.203 60.7031H196V0H204.203V60.7031ZM227.641 60.7031H224.594V0H227.641V60.7031ZM256.234 60.7031H248.031V0H256.234V60.7031ZM273.578 60.7031H270.531V0H273.578V60.7031ZM244.984 60.7031H241.938V0H244.984V60.7031ZM267.484 60.7031H264.438V0H267.484V60.7031ZM238.891 60.7031H230.688V0H238.891V60.7031ZM308.266 60.7031H300.062V0H308.266V60.7031ZM319.516 60.7031H316.469V0H319.516V60.7031ZM290.922 60.7031H287.875V0H290.922V60.7031ZM297.016 60.7031H293.969V0H297.016V60.7031ZM284.828 60.7031H276.625V0H284.828V60.7031ZM354.203 60.7031H351.156V0H354.203V60.7031ZM331.703 60.7031H328.656V0H331.703V60.7031ZM325.609 60.7031H322.562V0H325.609V60.7031ZM342.953 60.7031H334.75V0H342.953V60.7031ZM365.453 60.7031H357.25V0H365.453V60.7031ZM394.047 60.7031H385.844V0H394.047V60.7031ZM411.391 60.7031H408.344V0H411.391V60.7031ZM382.797 60.7031H379.75V0H382.797V60.7031ZM405.297 60.7031H402.25V0H405.297V60.7031ZM376.703 60.7031H368.5V0H376.703V60.7031ZM440.922 60.7031H437.875V0H440.922V60.7031ZM423.578 60.7031H420.531V0H423.578V60.7031ZM417.484 60.7031H414.438V0H417.484V60.7031ZM457.328 60.7031H449.125V0H457.328V60.7031ZM434.828 60.7031H426.625V0H434.828V60.7031ZM492.016 60.7031H488.969V0H492.016V60.7031ZM474.672 60.7031H471.625V0H474.672V60.7031ZM468.578 60.7031H460.375V0H468.578V60.7031ZM503.266 60.7031H500.219V0H503.266V60.7031ZM485.922 60.7031H477.719V0H485.922V60.7031ZM0.875 106.992C1.57812 107.344 2.54167 107.52 3.76562 107.52C6.10938 107.52 7.90625 106.836 9.15625 105.469C10.4062 104.115 11.0312 102.201 11.0312 99.7266V71.4453H7.71094V100C7.71094 101.471 7.3724 102.598 6.69531 103.379C6.03125 104.16 5.05469 104.551 3.76562 104.551C2.76302 104.551 1.79948 104.421 0.875 104.16V106.992ZM61.7914 89.9219V71.4453H58.4711V90.0391C58.4711 92.4349 57.82 94.2773 56.518 95.5664C55.2159 96.8424 53.3604 97.4805 50.9516 97.4805C48.4255 97.4805 46.5115 96.8424 45.2094 95.5664C43.9073 94.2904 43.2562 92.4609 43.2562 90.0781V71.4453H39.9359V89.8438C39.9359 93.125 40.8734 95.7031 42.7484 97.5781C44.6365 99.4531 47.2992 100.391 50.7367 100.391C54.1742 100.391 56.876 99.4596 58.8422 97.5977C60.8083 95.7357 61.7914 93.1771 61.7914 89.9219ZM105.364 90.918L108.919 100H112.356L101.126 71.3281H98.3328L87.0437 100H90.4031L93.9187 90.918H105.364ZM101.009 79.082L104.329 87.9297H95.0906L98.45 79.082C98.9838 77.5846 99.394 76.2109 99.6805 74.9609C100.136 76.5885 100.579 77.9622 101.009 79.082ZM156.398 100H160.187V71.4453H157.081V87.832C157.055 88.6523 157.088 90.0195 157.179 91.9336C157.27 93.8346 157.329 94.9609 157.355 95.3125H157.198L141.632 71.4453H137.882V100H140.948V83.7695C140.948 81.4258 140.844 78.8477 140.636 76.0352H140.792L156.398 100ZM194.423 77.1484C196.246 75.0521 198.727 74.0039 201.865 74.0039C204.026 74.0039 206.188 74.5117 208.349 75.5273L209.755 72.6758C207.516 71.582 204.899 71.0352 201.904 71.0352C199.091 71.0352 196.643 71.6341 194.56 72.832C192.49 74.0299 190.901 75.7357 189.795 77.9492C188.701 80.1628 188.154 82.7409 188.154 85.6836C188.154 90.3841 189.293 94.0104 191.572 96.5625C193.864 99.1146 197.112 100.391 201.318 100.391C204.222 100.391 206.663 100.02 208.642 99.2773V96.3672C206.09 97.0833 203.818 97.4414 201.826 97.4414C198.584 97.4414 196.084 96.4258 194.326 94.3945C192.581 92.3503 191.709 89.4596 191.709 85.7227C191.709 82.0898 192.614 79.2318 194.423 77.1484ZM236.473 100H252.391V97.0312H239.793V86.5234H251.629V83.5938H239.793V74.3945H252.391V71.4453H236.473V100ZM283.659 100V88.125H289.616L296.53 100H300.455L292.702 87.168C296.53 85.8398 298.444 83.2878 298.444 79.5117C298.444 76.8164 297.604 74.7982 295.924 73.457C294.258 72.1159 291.673 71.4453 288.17 71.4453H280.338V100H283.659ZM288.209 85.2734H283.659V74.3555H287.975C290.436 74.3555 292.22 74.7721 293.327 75.6055C294.446 76.4388 295.006 77.7995 295.006 79.6875C295.006 81.5495 294.459 82.9492 293.366 83.8867C292.272 84.8112 290.553 85.2734 288.209 85.2734ZM345.61 96.2695C348.175 93.7695 349.458 90.1628 349.458 85.4492C349.458 81.0352 348.227 77.5977 345.766 75.1367C343.305 72.6758 339.855 71.4453 335.415 71.4453H326.665V100H334.575C339.38 100 343.058 98.7565 345.61 96.2695ZM343.13 77.1484C345.005 79.0365 345.942 81.8424 345.942 85.5664C345.942 89.3815 344.946 92.2656 342.954 94.2188C340.962 96.1589 337.986 97.1289 334.028 97.1289H329.985V74.3164H334.809C338.494 74.3164 341.268 75.2604 343.13 77.1484ZM377.445 100H393.362V97.0312H380.765V86.5234H392.601V83.5938H380.765V74.3945H393.362V71.4453H377.445V100ZM439.826 100H443.615V71.4453H440.509V87.832C440.483 88.6523 440.516 90.0195 440.607 91.9336C440.698 93.8346 440.757 94.9609 440.783 95.3125H440.627L425.06 71.4453H421.31V100H424.377V83.7695C424.377 81.4258 424.272 78.8477 424.064 76.0352H424.22L439.826 100ZM434.005 68.7695C434.539 69.0039 435.086 69.1211 435.646 69.1211C436.87 69.1211 437.847 68.6784 438.576 67.793C439.318 66.8945 439.774 65.6576 439.943 64.082H438.009C437.814 64.8893 437.56 65.4883 437.248 65.8789C436.935 66.2565 436.46 66.4453 435.822 66.4453C435.405 66.4453 434.962 66.3281 434.494 66.0938C434.025 65.8464 433.537 65.5794 433.029 65.293C432.521 64.9935 431.987 64.7266 431.427 64.4922C430.867 64.2448 430.288 64.1211 429.689 64.1211C428.504 64.1211 427.534 64.5703 426.779 65.4688C426.037 66.3542 425.581 67.5846 425.412 69.1602H427.326C427.508 68.3659 427.762 67.7734 428.087 67.3828C428.426 66.9922 428.921 66.7969 429.572 66.7969C430.015 66.7969 430.47 66.9206 430.939 67.168C431.421 67.4023 431.916 67.6693 432.423 67.9688C432.944 68.2552 433.472 68.5221 434.005 68.7695ZM494.375 96.4648C496.693 93.8477 497.852 90.2539 497.852 85.6836C497.852 81.1003 496.699 77.5065 494.395 74.9023C492.09 72.2982 488.887 70.9961 484.785 70.9961C480.566 70.9961 477.311 72.2786 475.02 74.8438C472.728 77.3958 471.582 80.9961 471.582 85.6445C471.582 90.332 472.721 93.9648 475 96.543C477.292 99.1081 480.54 100.391 484.746 100.391C488.861 100.391 492.07 99.082 494.375 96.4648ZM477.559 94.4922C475.918 92.487 475.098 89.5508 475.098 85.6836C475.098 81.8685 475.918 78.9648 477.559 76.9727C479.212 74.9674 481.621 73.9648 484.785 73.9648C487.936 73.9648 490.312 74.9609 491.914 76.9531C493.529 78.9323 494.336 81.8424 494.336 85.6836C494.336 89.5638 493.529 92.5 491.914 94.4922C490.299 96.4844 487.91 97.4805 484.746 97.4805C481.608 97.4805 479.212 96.4844 477.559 94.4922Z" fill="#1B1919"/>
</svg>
